<?xml version="1.0" standalone="no"?><!DOCTYPE svg PUBLIC "-//W3C//DTD SVG 1.1//EN" "http://www.w3.org/Graphics/SVG/1.1/DTD/svg11.dtd"><svg t="1689606767993" class="icon" viewBox="0 0 1024 1024" version="1.1" xmlns="http://www.w3.org/2000/svg" p-id="1247" xmlns:xlink="http://www.w3.org/1999/xlink" width="200" height="200"><path d="M512 915.2c-28.8 0-54.4-12.8-73.6-35.2l-57.6-67.2H246.4c-83.2 0-150.4-67.2-150.4-147.2V256c0-80 67.2-147.2 150.4-147.2h531.2c41.6 0 80 16 108.8 44.8 25.6 25.6 41.6 64 41.6 102.4v409.6c0 80-67.2 147.2-150.4 147.2h-134.4l-57.6 67.2c-19.2 22.4-44.8 35.2-73.6 35.2zM246.4 172.8C198.4 172.8 160 208 160 256v409.6c0 44.8 38.4 83.2 86.4 83.2h140.8c16 0 28.8 6.4 38.4 16l60.8 73.6c6.4 6.4 16 12.8 25.6 12.8 9.6 0 19.2-3.2 25.6-12.8l60.8-73.6c9.6-9.6 22.4-16 38.4-16h140.8c48 0 86.4-38.4 86.4-83.2V256c0-22.4-9.6-41.6-25.6-57.6s-38.4-25.6-64-25.6H246.4z" p-id="1248" fill="#ffffff"></path><path d="M326.4 348.8H720s3.2 0 3.2 3.2c0 0 3.2 0 3.2 3.2l3.2 3.2 3.2 3.2s0 3.2 3.2 3.2V396.8s0 3.2-3.2 3.2l-3.2 3.2-3.2 3.2-3.2 3.2s-3.2 0-3.2 3.2h-3.2-3.2-3.2-3.2-3.2H326.4h-3.2-3.2-3.2-3.2-3.2-3.2s-3.2 0-3.2-3.2c0 0-3.2 0-3.2-3.2l-3.2-3.2-3.2-3.2s0-3.2-3.2-3.2v-3.2-3.2-3.2-3.2-3.2-3.2-3.2-3.2-3.2-3.2s0-3.2 3.2-3.2l3.2-3.2 3.2-3.2 3.2-3.2s3.2 0 3.2-3.2H326.4c-3.2 0-3.2 0 0 0zM326.4 512H720s3.2 0 3.2 3.2c0 0 3.2 0 3.2 3.2l3.2 3.2 3.2 3.2s0 3.2 3.2 3.2V560s0 3.2-3.2 3.2l-3.2 3.2-3.2 3.2-3.2 3.2s-3.2 0-3.2 3.2-3.2 0-3.2 0h-3.2-3.2-3.2-3.2H326.4h-3.2-3.2-3.2-3.2-3.2-3.2s-3.2 0-3.2-3.2c0 0-3.2 0-3.2-3.2l-3.2-3.2-3.2-3.2s0-3.2-3.2-3.2 0-3.2 0-3.2v-3.2-3.2-3.2-3.2-3.2-3.2-3.2-3.2-3.2s0-3.2 3.2-3.2l3.2-3.2 3.2-3.2 3.2-3.2s3.2 0 3.2-3.2H326.4c-3.2 0-3.2 0 0 0z" p-id="1249" fill="#ffffff"></path></svg>