<?xml version="1.0" ?><svg id="Icons" viewBox="0 0 24 24" xmlns="http://www.w3.org/2000/svg"><defs><style>.cls-1{fill:#232323;}</style></defs><path class="cls-1" d="M19,0H5A5.006,5.006,0,0,0,0,5V19a5.006,5.006,0,0,0,5,5H19a5.006,5.006,0,0,0,5-5V5A5.006,5.006,0,0,0,19,0Zm3,19a3,3,0,0,1-3,3H5a3,3,0,0,1-3-3V5A3,3,0,0,1,5,2H19a3,3,0,0,1,3,3Z"/><path class="cls-1" d="M7,10A3,3,0,1,0,4,7,3,3,0,0,0,7,10ZM7,6A1,1,0,1,1,6,7,1,1,0,0,1,7,6Z"/><path class="cls-1" d="M16.707,10.293a.956.956,0,0,0-.74-.293,1.006,1.006,0,0,0-.72.341L12.217,13.8l-2.51-2.511a1,1,0,0,0-1.414,0l-4,4a1,1,0,1,0,1.414,1.414L9,13.414l1.9,1.9L8.247,18.341a1,1,0,0,0,1.506,1.318l3.218-3.678.006,0,.007-.011,3.065-3.5,2.244,2.244a1,1,0,0,0,1.414-1.414Z"/></svg>